<svg width="42" height="42" viewBox="0 0 42 42" fill="none" xmlns="http://www.w3.org/2000/svg">
<path d="M35.7321 4.58838H6.27302C5.56456 4.58838 4.99219 5.16075 4.99219 5.86921V35.3283C4.99219 36.0368 5.56456 36.6092 6.27302 36.6092H35.7321C36.4406 36.6092 37.013 36.0368 37.013 35.3283V5.86921C37.013 5.16075 36.4406 4.58838 35.7321 4.58838ZM32.0337 13.9344H29.4761C27.4708 13.9344 27.0825 14.8871 27.0825 16.288V19.374H31.8696L31.2452 24.2051H27.0825V36.6092H22.0913V24.2091H17.9166V19.374H22.0913V15.8117C22.0913 11.677 24.6169 9.42352 28.3073 9.42352C30.0765 9.42352 31.5934 9.5556 32.0377 9.61564V13.9344H32.0337Z" fill="white"/>
</svg>
