<svg width="33" height="33" viewBox="0 0 33 33" fill="none" xmlns="http://www.w3.org/2000/svg">
<path d="M30.7321 0.601807H1.27302C0.564559 0.601807 -0.0078125 1.17418 -0.0078125 1.88264V31.3418C-0.0078125 32.0502 0.564559 32.6226 1.27302 32.6226H30.7321C31.4406 32.6226 32.013 32.0502 32.013 31.3418V1.88264C32.013 1.17418 31.4406 0.601807 30.7321 0.601807ZM27.0337 9.94787H24.4761C22.4708 9.94787 22.0825 10.9005 22.0825 12.3014V15.3874H26.8696L26.2452 20.2185H22.0825V32.6226H17.0913V20.2225H12.9166V15.3874H17.0913V11.8251C17.0913 7.69041 19.6169 5.43694 23.3073 5.43694C25.0765 5.43694 26.5934 5.56903 27.0377 5.62907V9.94787H27.0337Z" fill="#2091F9"/>
</svg>
