<svg width="33" height="33" viewBox="0 0 33 33" fill="none" xmlns="http://www.w3.org/2000/svg">
<path d="M31.7165 0.601807H2.25739C1.54893 0.601807 0.976562 1.17418 0.976562 1.88264V31.3418C0.976562 32.0502 1.54893 32.6226 2.25739 32.6226H31.7165C32.425 32.6226 32.9973 32.0502 32.9973 31.3418V1.88264C32.9973 1.17418 32.425 0.601807 31.7165 0.601807ZM10.4747 27.8875H5.72364V12.6056H10.4747V27.8875ZM8.10119 10.5162C7.55654 10.5162 7.02412 10.3547 6.57126 10.0521C6.11841 9.74955 5.76545 9.31947 5.55702 8.81628C5.34859 8.31309 5.29406 7.7594 5.40031 7.22522C5.50657 6.69103 5.76884 6.20036 6.15396 5.81523C6.53909 5.43011 7.02977 5.16783 7.56395 5.06158C8.09813 4.95532 8.65182 5.00986 9.15501 5.21829C9.6582 5.42671 10.0883 5.77967 10.3909 6.23253C10.6935 6.68539 10.855 7.21781 10.855 7.76245C10.851 9.28344 9.61817 10.5162 8.10119 10.5162ZM28.2623 27.8875H23.5152V20.4547C23.5152 18.6815 23.4832 16.4041 21.0456 16.4041C18.576 16.4041 18.1957 18.3333 18.1957 20.3266V27.8875H13.4527V12.6056H18.0076V14.695H18.0717C18.7041 13.4942 20.2531 12.2253 22.5666 12.2253C27.3777 12.2253 28.2623 15.3914 28.2623 19.5061V27.8875Z" fill="#2091F9"/>
</svg>
