<svg width="33" height="33" viewBox="0 0 33 33" fill="none" xmlns="http://www.w3.org/2000/svg">
<path d="M31.7165 0.588379H2.25739C1.54893 0.588379 0.976562 1.16075 0.976562 1.86921V31.3283C0.976562 32.0368 1.54893 32.6092 2.25739 32.6092H31.7165C32.425 32.6092 32.9973 32.0368 32.9973 31.3283V1.86921C32.9973 1.16075 32.425 0.588379 31.7165 0.588379ZM10.4747 27.8741H5.72364V12.5922H10.4747V27.8741ZM8.10119 10.5028C7.55654 10.5028 7.02412 10.3413 6.57126 10.0387C6.11841 9.73612 5.76545 9.30604 5.55702 8.80285C5.34859 8.29966 5.29406 7.74597 5.40031 7.21179C5.50657 6.67761 5.76884 6.18693 6.15396 5.8018C6.53909 5.41668 7.02977 5.15441 7.56395 5.04815C8.09813 4.9419 8.65182 4.99643 9.15501 5.20486C9.6582 5.41329 10.0883 5.76625 10.3909 6.2191C10.6935 6.67196 10.855 7.20438 10.855 7.74902C10.851 9.27001 9.61817 10.5028 8.10119 10.5028ZM28.2623 27.8741H23.5152V20.4413C23.5152 18.6681 23.4832 16.3906 21.0456 16.3906C18.576 16.3906 18.1957 18.3199 18.1957 20.3132V27.8741H13.4527V12.5922H18.0076V14.6815H18.0717C18.7041 13.4807 20.2531 12.2119 22.5666 12.2119C27.3777 12.2119 28.2623 15.378 28.2623 19.4926V27.8741Z" fill="white"/>
</svg>
