<svg width="46" height="47" viewBox="0 0 46 47" fill="none" xmlns="http://www.w3.org/2000/svg">
<path d="M22.9987 26.9388C27.2269 26.9388 30.6654 23.5003 30.6654 19.2721C30.6654 15.044 27.2269 11.6055 22.9987 11.6055C18.7705 11.6055 15.332 15.044 15.332 19.2721C15.332 23.5003 18.7705 26.9388 22.9987 26.9388ZM22.9987 15.4388C25.1128 15.4388 26.832 17.1581 26.832 19.2721C26.832 21.3862 25.1128 23.1055 22.9987 23.1055C20.8846 23.1055 19.1654 21.3862 19.1654 19.2721C19.1654 17.1581 20.8846 15.4388 22.9987 15.4388Z" fill="white"/>
<path d="M21.8898 41.9158C22.2142 42.1475 22.6029 42.272 23.0015 42.272C23.4001 42.272 23.7887 42.1475 24.1131 41.9158C24.6958 41.5037 38.3904 31.6156 38.3348 19.2723C38.3348 10.8179 31.4559 3.93896 23.0015 3.93896C14.5471 3.93896 7.66814 10.8179 7.66814 19.2627C7.61255 31.6156 21.3071 41.5037 21.8898 41.9158ZM23.0015 7.7723C29.3437 7.7723 34.5015 12.93 34.5015 19.2819C34.5417 27.788 26.0911 35.426 23.0015 37.931C19.9137 35.4241 11.4612 27.7842 11.5015 19.2723C11.5015 12.93 16.6592 7.7723 23.0015 7.7723Z" fill="white"/>
</svg>
