<svg width="27" height="21" viewBox="0 0 27 21" fill="none" xmlns="http://www.w3.org/2000/svg">
<path d="M25.8125 0.292969H1.4375C0.918945 0.292969 0.5 0.711914 0.5 1.23047V19.9805C0.5 20.499 0.918945 20.918 1.4375 20.918H25.8125C26.3311 20.918 26.75 20.499 26.75 19.9805V1.23047C26.75 0.711914 26.3311 0.292969 25.8125 0.292969ZM24.6406 3.53906V18.8086H2.60938V3.53906L1.80078 2.90918L2.95215 1.42969L4.20605 2.40527H23.0469L24.3008 1.42969L25.4521 2.90918L24.6406 3.53906ZM23.0469 2.40234L13.625 9.72656L4.20312 2.40234L2.94922 1.42676L1.79785 2.90625L2.60645 3.53613L12.6143 11.3174C12.9021 11.541 13.2561 11.6624 13.6206 11.6624C13.9851 11.6624 14.3391 11.541 14.627 11.3174L24.6406 3.53906L25.4492 2.90918L24.2979 1.42969L23.0469 2.40234Z" fill="#2091F9"/>
</svg>
