<svg width="42" height="42" viewBox="0 0 42 42" fill="none" xmlns="http://www.w3.org/2000/svg">
<path d="M37.665 10.2976C36.4402 10.8259 35.1073 11.2062 33.7344 11.3543C35.1598 10.5075 36.2272 9.16966 36.7364 7.59184C35.3988 8.38752 33.9336 8.94546 32.4056 9.24091C31.7669 8.55818 30.9945 8.01428 30.1365 7.64311C29.2785 7.27194 28.3532 7.08145 27.4183 7.08351C23.6359 7.08351 20.5939 10.1495 20.5939 13.9119C20.5939 14.4403 20.6579 14.9686 20.762 15.477C15.0983 15.1808 10.0471 12.475 6.68889 8.33232C6.07699 9.37746 5.75634 10.5675 5.76028 11.7786C5.76028 14.1481 6.96507 16.2375 8.80226 17.4663C7.71957 17.4236 6.66224 17.126 5.71626 16.5977V16.6817C5.71626 19.9999 8.06178 22.7497 11.1878 23.3821C10.6009 23.5345 9.99706 23.6125 9.39064 23.6142C8.94635 23.6142 8.52608 23.5702 8.1018 23.5102C8.96636 26.2159 11.484 28.1812 14.4819 28.2452C12.1364 30.0824 9.19851 31.1631 6.00845 31.1631C5.43607 31.1631 4.90773 31.1431 4.35938 31.0791C7.38534 33.0203 10.9757 34.1411 14.8422 34.1411C27.3943 34.1411 34.2628 23.7423 34.2628 14.7165C34.2628 14.4203 34.2628 14.1241 34.2428 13.8279C35.5716 12.8553 36.7364 11.6505 37.665 10.2976Z" fill="#2091F9"/>
</svg>
