<svg width="42" height="42" viewBox="0 0 42 42" fill="none" xmlns="http://www.w3.org/2000/svg">
<path d="M37.665 10.2839C36.4402 10.8123 35.1073 11.1925 33.7344 11.3406C35.1598 10.4938 36.2272 9.15599 36.7364 7.57817C35.3988 8.37384 33.9336 8.93178 32.4056 9.22724C31.7669 8.5445 30.9945 8.0006 30.1365 7.62943C29.2785 7.25826 28.3532 7.06778 27.4183 7.06984C23.6359 7.06984 20.5939 10.1358 20.5939 13.8983C20.5939 14.4266 20.6579 14.955 20.762 15.4633C15.0983 15.1671 10.0471 12.4613 6.68889 8.31865C6.07699 9.36379 5.75634 10.5538 5.76028 11.7649C5.76028 14.1344 6.96507 16.2238 8.80226 17.4526C7.71957 17.4099 6.66224 17.1123 5.71626 16.584V16.6681C5.71626 19.9862 8.06178 22.736 11.1878 23.3684C10.6009 23.5209 9.99706 23.5989 9.39064 23.6006C8.94635 23.6006 8.52608 23.5565 8.1018 23.4965C8.96636 26.2023 11.484 28.1675 14.4819 28.2316C12.1364 30.0688 9.19851 31.1495 6.00845 31.1495C5.43607 31.1495 4.90773 31.1295 4.35938 31.0654C7.38534 33.0067 10.9757 34.1274 14.8422 34.1274C27.3943 34.1274 34.2628 23.7287 34.2628 14.7028C34.2628 14.4066 34.2628 14.1104 34.2428 13.8142C35.5716 12.8416 36.7364 11.6368 37.665 10.2839Z" fill="white"/>
</svg>
